PathFileType	4	(X/Y/Z)	marker_experimental.trc																																																																																																																
DataRate	CameraRate	NumFrames	NumMarkers	Units	OrigDataRate	OrigDataStartFrame	OrigNumFrames																																																																																																												
200	200	6	38	mm	200	526	600																																																																																																												
Frame#	Time	C7			T10			CLAV			STRN			RBAK			LASI			RASI			SACR			LT1			LT2			LT3			LS1			LS2			LS3			LHEE			LTOE			RT1			RT2			RT3			RS1			RS2			RS3			RHEE			RTOE			LKNE			LKNM			LANK			LANM			RKNM			RKNE			RANM			RANK			LAJC			LKJC			RAJC			RKJC			RHJC			LHJC		
		X1	Y1	Z1	X2	Y2	Z2	X3	Y3	Z3	X4	Y4	Z4	X5	Y5	Z5	X6	Y6	Z6	X7	Y7	Z7	X8	Y8	Z8	X9	Y9	Z9	X10	Y10	Z10	X11	Y11	Z11	X12	Y12	Z12	X13	Y13	Z13	X14	Y14	Z14	X15	Y15	Z15	X16	Y16	Z16	X17	Y17	Z17	X18	Y18	Z18	X19	Y19	Z19	X20	Y20	Z20	X21	Y21	Z21	X22	Y22	Z22	X23	Y23	Z23	X24	Y24	Z24	X25	Y25	Z25	X26	Y26	Z26	X27	Y27	Z27	X28	Y28	Z28	X29	Y29	Z29	X30	Y30	Z30	X31	Y31	Z31	X32	Y32	Z32	X33	Y33	Z33	X34	Y34	Z34	X35	Y35	Z35	X36	Y36	Z36	X37	Y37	Z37	X38	Y38	Z38
																																																																																																																			
526	2.625	-408.35321	994.373962	795.104919	-399.350616	819.867737	760.00946	-411.779724	949.901123	910.133789	-406.983459	819.737122	951.125427	-494.955902	936.213684	764.638123	-294.595612	654.109131	895.188843	-509.52066	650.007568	894.005005	-400.548065	698.640991	743.818115	-232.094849	485.233154	882.477173	-227.270493	396.506714	839.793213	-237.239395	411.492798	982.443909	-222.475616	237.028656	863.576233	-209.964447	205.200378	745.557556	-238.841064	140.988632	870.6427	-282.057495	59.079887	713.215637	-274.96582	49.081112	853.027588	-554.934387	487.883453	864.868896	-537.931274	401.426483	826.070923	-561.219116	422.415924	963.971069	-549.834778	251.956589	895.397888	-570.138428	219.258194	778.210266	-536.417358	156.889221	902.553528	-494.949524	57.544548	733.417114	-492.504242	49.470734	875.811157	-234.807663	329.935883	903.179932	-330.029053	305.604858	934.302856	-251.685501	44.060455	755.187622	-319.258148	40.53289	760.753906	-433.729095	319.799866	938.356018	-538.738159	324.26355	914.967285	-455.289154	56.920948	783.027527	-528.02533	44.568161	780.444214	-285.471825	42.296672	757.970764	-282.418358	317.770371	918.741394	-491.657242	50.744555	781.73587	-486.233627	322.031708	926.661651	-478.802569	592.638196	826.280171	-322.354917	595.623795	827.141907
527	2.63	-408.40036	994.376892	795.043335	-399.379578	819.860962	759.966187	-411.823364	949.947144	910.058594	-407.012207	819.77594	951.102539	-495.000916	936.22229	764.591919	-294.634399	654.124146	895.15625	-509.554352	650.021606	893.970764	-400.590942	698.634094	743.770508	-232.123734	485.245392	882.439941	-227.291199	396.51651	839.770203	-237.24408	411.516846	982.416626	-222.474518	237.04744	863.558838	-209.972733	205.19957	745.548767	-238.859665	140.98645	870.655396	-282.057983	59.077499	713.214661	-274.964264	49.087013	853.027039	-554.956299	487.880341	864.843628	-537.964294	401.415131	826.052673	-561.243652	422.409363	963.951416	-549.850891	251.952545	895.394836	-570.146606	219.254623	778.19519	-536.429382	156.893509	902.544434	-494.948273	57.540062	733.416992	-492.505432	49.470573	875.811157	-234.825119	329.950989	903.182556	-330.033203	305.611572	934.297302	-251.686722	44.059418	755.188049	-319.25119	40.526081	760.751465	-433.757233	319.801453	938.370056	-538.756104	324.262756	914.950684	-455.301697	56.923481	783.015015	-528.028503	44.564346	780.441528	-285.468956	42.292749	757.969757	-282.429161	317.78128	918.739929	-491.6651	50.743914	781.728271	-486.256669	322.032105	926.66037	-478.836187	592.643789	826.253969	-322.391899	595.630105	827.116906
528	2.635	-408.449799	994.377808	794.982849	-399.413391	819.855103	759.920471	-411.871368	949.99646	909.982361	-407.041809	819.81134	951.073486	-495.048248	936.230774	764.543457	-294.674652	654.135498	895.121765	-509.586823	650.032959	893.934937	-400.633179	698.624268	743.723633	-232.154099	485.257019	882.399658	-227.31395	396.521576	839.746765	-237.249634	411.540283	982.389343	-222.472839	237.065765	863.541077	-209.981567	205.191376	745.53595	-238.880463	140.984451	870.671631	-282.062042	59.070347	713.214905	-274.96225	49.092911	853.026184	-554.980896	487.875732	864.819275	-538.000366	401.406525	826.032166	-561.270874	422.401886	963.934387	-549.864929	251.947144	895.385681	-570.155151	219.243423	778.18103	-536.437378	156.903183	902.516296	-494.947845	57.532612	733.419067	-492.506073	49.471619	875.809814	-234.840668	329.963348	903.179199	-330.036743	305.617218	934.286682	-251.689667	44.055977	755.188843	-319.24881	40.52121	760.74823	-433.784485	319.804443	938.378845	-538.775269	324.261566	914.934448	-455.318085	56.916931	783.013611	-528.031799	44.560169	780.43866	-285.469238	42.288594	757.968537	-282.438705	317.790283	918.732941	-491.674942	50.73855	781.726136	-486.279877	322.033005	926.656646	-478.869405	592.647582	826.226547	-322.430254	595.633907	827.090465
529	2.64	-408.500549	994.376343	794.923767	-399.451813	819.850464	759.872681	-411.920349	950.044617	909.904846	-407.074005	819.840332	951.036621	-495.098907	936.238831	764.492188	-294.716522	654.142761	895.084839	-509.616028	650.036011	893.89917	-400.673615	698.611938	743.678406	-232.188217	485.264496	882.362244	-227.337418	396.525208	839.721313	-237.257446	411.562408	982.361938	-222.472458	237.080688	863.525391	-209.986435	205.183868	745.5224	-238.898956	140.985809	870.687073	-282.067322	59.060772	713.216797	-274.960297	49.097855	853.023499	-555.008423	487.86911	864.796021	-538.03894	401.400238	826.010315	-561.300293	422.394745	963.920166	-549.877991	251.940201	895.372314	-570.164368	219.22467	778.169556	-536.446472	156.916351	902.484985	-494.947754	57.522064	733.423767	-492.506195	49.473156	875.807373	-234.853912	329.972504	903.169678	-330.041382	305.621887	934.268921	-251.694504	44.050163	755.190002	-319.251495	40.518215	760.744629	-433.809875	319.807556	938.381165	-538.795715	324.258942	914.91925	-455.331787	56.905018	783.021545	-528.034668	44.555965	780.435547	-285.473	42.284189	757.967316	-282.447647	317.797196	918.7193	-491.683228	50.730491	781.728546	-486.302795	322.033249	926.650208	-478.89986	592.646776	826.198056	-322.469073	595.636183	827.061135
530	2.645	-408.551178	994.372559	794.86615	-399.493683	819.846558	759.822815	-411.965637	950.087463	909.825562	-407.109711	819.861267	950.992554	-495.152771	936.245728	764.438293	-294.759857	654.146179	895.045166	-509.644409	650.023987	893.864258	-400.711151	698.597412	743.635315	-232.225998	485.266754	882.331848	-227.358978	396.530914	839.692871	-237.269592	411.582214	982.3349	-222.475052	237.089767	863.513733	-209.995819	205.178894	745.51355	-238.912582	140.992157	870.697998	-282.07074	59.052555	713.21991	-274.958893	49.101223	853.018555	-555.037964	487.859924	864.773804	-538.079407	401.39563	825.988037	-561.329773	422.389587	963.907166	-549.891846	251.932343	895.358521	-570.174133	219.202927	778.160767	-536.462036	156.925369	902.467346	-494.947418	57.50856	733.431091	-492.505859	49.474678	875.804565	-234.864471	329.980682	903.155518	-330.048462	305.625763	934.242249	-251.70105	44.042397	755.191284	-319.258636	40.516533	760.740784	-433.832977	319.809357	938.377869	-538.8172	324.254578	914.904785	-455.336426	56.897148	783.030029	-528.036682	44.551781	780.43158	-285.479843	42.279465	757.966034	-282.456466	317.803223	918.698883	-491.686554	50.724464	781.730804	-486.325088	322.031967	926.641327	-478.928027	592.63632	826.167468	-322.507129	595.636987	827.027087
531	2.65	-408.600311	994.366577	794.809998	-399.537476	819.842712	759.770935	-412.00415	950.122192	909.745178	-407.149048	819.874023	950.943237	-495.208527	936.250488	764.382629	-294.804474	654.146912	895.002747	-509.676056	649.997314	893.829285	-400.745178	698.581055	743.594177	-232.264969	485.265564	882.309082	-227.376831	396.539581	839.661987	-237.288452	411.597778	982.30896	-222.48175	237.092133	863.506592	-210.022202	205.174072	745.507935	-238.921234	141.003159	870.702576	-282.071136	59.046787	713.223267	-274.95874	49.102257	853.012756	-555.068054	487.847931	864.75238	-538.120728	401.391968	825.966125	-561.357544	422.387329	963.892212	-549.907532	251.923981	895.346741	-570.184509	219.183762	778.153503	-536.480652	156.923004	902.467407	-494.946167	57.492458	733.440491	-492.505402	49.475872	875.802307	-234.872635	329.990479	903.139587	-330.058746	305.629364	934.206482	-251.708878	44.033253	755.192322	-319.268585	40.515411	760.736206	-433.853394	319.809082	938.370605	-538.839294	324.248962	914.889954	-455.330841	56.90308	783.026733	-528.037537	44.547451	780.426331	-285.488731	42.274332	757.964264	-282.46569	317.809921	918.673035	-491.684189	50.725266	781.726532	-486.346344	322.029022	926.630279	-478.956784	592.615329	826.133843	-322.544479	595.635962	826.988046
